<?xml version="1.0" standalone="no"?>
<!DOCTYPE svg PUBLIC "-//W3C//DTD SVG 20010904//EN"
 "http://www.w3.org/TR/2001/REC-SVG-20010904/DTD/svg10.dtd">
<svg version="1.0" xmlns="http://www.w3.org/2000/svg"
 width="320.000000pt" height="320.000000pt" viewBox="0 0 320.000000 320.000000"
 preserveAspectRatio="xMidYMid meet">

<g transform="translate(0.000000,320.000000) scale(0.100000,-0.100000)"
fill="#000000" stroke="none">
<path d="M2 3068 l3 -133 77 -1 c45 0 83 -6 92 -13 12 -10 15 -59 15 -297 0
-189 -3 -291 -11 -303 -9 -15 -22 -17 -94 -13 l-84 5 0 -82 0 -81 95 0 c57 0
95 -4 95 -10 0 -6 -38 -10 -95 -10 l-95 0 0 -130 0 -130 96 0 c61 0 93 -4 89
-10 -3 -5 -46 -10 -96 -10 l-89 0 0 -135 0 -135 381 0 c243 0 387 -4 400 -10
18 -10 19 -28 19 -628 0 -339 -4 -623 -9 -631 -7 -11 -80 -13 -400 -13 l-391
0 0 -149 0 -149 1600 0 1600 0 0 455 0 455 -27 6 c-46 10 -50 14 -10 11 l37
-3 0 458 0 459 -52 -7 c-37 -5 -49 -4 -44 5 4 6 27 11 52 11 l44 0 0 236 c0
154 -3 233 -10 229 -6 -4 -10 8 -10 29 0 20 5 36 10 36 6 0 10 7 10 15 0 18
-40 20 -41 3 0 -7 -4 -2 -10 10 -5 13 -7 28 -4 32 3 5 -1 11 -7 13 -8 3 -6 6
5 6 9 1 17 -4 17 -10 0 -8 6 -7 17 2 11 10 14 10 9 2 -4 -7 -2 -13 3 -13 8 0
11 119 11 380 l0 380 -944 0 c-859 0 -944 -1 -950 -16 -4 -10 -14 -14 -26 -11
-12 3 -24 -1 -29 -11 -9 -16 -10 -16 -16 0 -4 10 -11 15 -16 12 -5 -3 -9 3 -9
13 -1 15 -2 16 -10 3 -6 -11 -21 -15 -49 -13 -30 1 -41 -2 -41 -13 0 -17 -12
-18 -28 -2 -9 9 -15 9 -23 1 -7 -7 -22 -8 -42 -3 -18 5 -43 8 -57 7 -21 -2
-26 -8 -31 -42 -6 -37 -6 -36 -7 18 -2 59 -22 82 -22 25 0 -23 -3 -29 -9 -19
-7 11 -13 10 -32 -3 -15 -9 -29 -12 -38 -7 -8 5 -19 7 -26 5 -6 -3 -18 2 -25
10 -7 9 -16 13 -21 10 -5 -3 -30 -7 -55 -9 -34 -3 -47 0 -51 12 -4 10 -14 13
-34 9 -18 -3 -34 0 -42 9 -11 10 -17 11 -26 2 -6 -6 -11 -7 -11 -1 0 7 -96 11
-265 13 l-266 2 3 -133z m2154 -9 c27 -26 69 -33 106 -18 22 9 30 7 45 -8 20
-20 37 -53 35 -65 -1 -5 7 -17 19 -29 22 -22 21 -44 -4 -44 -26 0 -33 -16 -13
-31 11 -8 15 -14 10 -14 -6 0 -21 11 -34 25 -22 23 -22 25 -4 25 16 0 16 2 4
10 -10 6 -16 6 -18 0 -2 -6 -10 -10 -18 -10 -9 0 -13 -4 -9 -9 3 -5 1 -13 -5
-16 -6 -4 -10 -3 -9 2 1 4 -1 16 -6 26 -6 15 -10 16 -16 5 -5 -8 -8 2 -6 27
l2 39 -46 4 c-43 3 -46 2 -44 -20 1 -18 8 -23 28 -23 14 -1 30 -5 34 -10 4 -4
0 -5 -10 -2 -11 4 -16 3 -12 -4 4 -6 0 -18 -9 -28 -14 -15 -14 -18 -1 -18 8 0
12 4 10 8 -3 4 2 10 11 13 12 5 14 1 8 -16 -6 -21 -6 -22 12 -8 18 14 18 14 5
-3 -8 -9 -16 -15 -19 -12 -3 3 -14 -3 -24 -12 -15 -14 -18 -14 -13 -2 4 10 0
16 -10 16 -8 0 -15 -4 -15 -9 0 -5 -5 -6 -10 -3 -6 4 -18 1 -26 -6 -12 -10
-13 -9 -8 5 5 14 2 16 -20 12 -14 -2 -30 -7 -36 -11 -5 -3 -10 -1 -10 4 0 6
-6 11 -14 11 -8 0 -13 -8 -12 -17 2 -10 -4 -21 -12 -24 -8 -3 -16 -13 -18 -22
-1 -10 3 -14 13 -10 13 5 13 2 -2 -20 -17 -26 -54 -40 -39 -14 6 9 4 9 -8 -1
-19 -15 -28 1 -28 55 0 28 3 34 15 29 9 -3 18 1 22 10 3 9 13 14 24 11 11 -3
19 -1 19 4 0 6 9 20 20 32 20 20 20 22 4 34 -24 18 -39 16 -24 -2 11 -13 10
-14 -3 -9 -19 7 -47 -17 -47 -40 0 -20 -14 -21 -29 -2 -8 10 -8 21 -1 41 6 15
8 30 5 35 -5 8 30 58 49 72 6 4 15 4 21 1 5 -4 7 -3 3 2 -4 4 0 14 8 22 12 12
17 13 30 2 20 -16 44 -21 44 -8 0 5 -6 9 -12 9 -20 0 34 28 56 29 11 1 30 -9
42 -20z m-921 -68 c3 -5 0 -13 -6 -16 -5 -4 -8 -13 -5 -21 3 -8 1 -14 -4 -14
-6 0 -10 5 -10 11 0 6 -7 9 -15 6 -17 -7 -29 8 -21 28 6 17 51 20 61 6z m83
-18 c4 -29 -14 -30 -23 -2 -8 23 -21 15 -27 -16 -5 -18 -6 -18 -13 -2 -12 29
2 49 32 45 20 -2 29 -9 31 -25z m80 -10 c2 -13 -1 -23 -7 -23 -6 0 -11 9 -11
20 0 25 -15 26 -24 3 -6 -15 -8 -15 -16 -3 -16 25 -11 31 23 28 24 -2 33 -8
35 -25z m42 7 c0 -11 -4 -20 -10 -20 -5 0 -10 9 -10 20 0 11 5 20 10 20 6 0
10 -9 10 -20z m1316 -9 c23 -10 55 -22 73 -26 20 -4 31 -13 31 -24 0 -26 -11
-32 -28 -14 -13 13 -34 14 -132 9 -65 -3 -125 -9 -135 -12 -15 -6 -16 -4 -6
14 12 23 37 39 86 59 42 16 64 15 111 -6z m-1753 -23 c18 -31 18 -32 -7 -57
-23 -22 -25 -23 -25 -5 -1 10 -4 36 -7 57 -8 47 13 50 39 5z m-243 -28 c0 -6
-32 -11 -72 -11 -40 -1 -62 -4 -48 -6 l24 -5 -23 -12 c-21 -12 -23 -21 -25
-82 0 -39 -5 -68 -11 -66 -13 3 -13 45 0 54 6 5 5 8 -2 8 -7 0 -13 9 -13 20 0
11 5 20 12 20 6 0 9 2 6 5 -3 4 -17 3 -31 0 -27 -7 -44 -52 -26 -69 14 -15 11
-43 -5 -49 -10 -4 -14 9 -15 61 -1 37 -4 75 -7 85 -4 12 0 17 15 17 12 0 21 5
21 10 0 6 -17 10 -37 10 -27 0 -34 -3 -24 -9 12 -8 9 -11 -12 -16 -24 -6 -27
-12 -27 -49 0 -30 -3 -37 -10 -26 -8 12 -10 11 -10 -7 0 -13 -4 -23 -10 -23
-5 0 -11 -12 -11 -27 -2 -28 -2 -28 -6 -3 -6 32 -22 52 -35 44 -7 -4 -9 9 -6
35 2 30 0 41 -10 41 -10 0 -13 -20 -10 -90 2 -65 0 -86 -8 -76 -5 8 -11 55
-12 105 -1 77 1 90 16 94 12 3 11 5 -5 6 -13 0 -23 6 -23 11 0 6 80 10 220 10
140 0 220 -4 220 -10z m2428 -177 l2 -163 -105 0 -105 0 0 166 0 165 103 -3
102 -3 3 -162z m-2438 97 c0 -33 -4 -60 -10 -60 -11 0 -14 103 -3 113 12 12
13 8 13 -53z m274 39 c-3 -6 0 -15 7 -20 7 -4 10 -12 5 -16 -5 -4 -11 -2 -13
5 -3 6 -9 10 -14 6 -13 -8 -11 10 3 24 15 15 21 16 12 1z m1376 1 c0 -5 -2
-10 -4 -10 -3 0 -8 5 -11 10 -3 6 -1 10 4 10 6 0 11 -4 11 -10z m321 -7 c-19
-16 -22 -29 -24 -135 -2 -113 -3 -117 -22 -111 -11 4 -33 6 -48 5 -25 -1 -28
2 -25 26 2 15 9 33 16 41 10 11 10 15 -3 25 -18 13 -11 46 10 46 7 0 16 7 19
16 3 8 2 12 -3 9 -5 -3 -13 0 -17 6 -4 8 -9 7 -15 -2 -6 -10 -9 -11 -9 -2 0
20 60 72 94 82 46 14 50 13 27 -6z m116 3 c10 -9 13 -185 5 -206 -8 -18 -11
-20 -11 -7 -1 14 -5 16 -18 9 -17 -9 -29 -8 -63 5 -8 4 -18 6 -22 5 -4 -1 -4
6 -1 15 4 11 3 14 -6 9 -24 -15 -2 49 25 72 20 18 35 22 56 18 28 -6 29 -5 26
31 -2 28 -9 41 -28 51 l-25 14 30 -7 c16 -4 31 -8 32 -9z m-2330 -28 c-3 -7
-5 -2 -5 12 0 14 2 19 5 13 2 -7 2 -19 0 -25z m1773 8 c0 -8 8 -13 17 -12 12
1 19 -7 21 -24 l4 -25 -22 23 c-11 12 -25 22 -30 22 -6 0 -10 7 -10 15 0 8 5
15 10 15 6 0 10 -6 10 -14z m163 7 c-7 -2 -19 -2 -25 0 -7 3 -2 5 12 5 14 0
19 -2 13 -5z m-1268 -12 c3 -5 1 -12 -4 -15 -5 -3 -11 1 -15 9 -6 16 9 21 19
6z m-188 -21 c1 -11 -2 -20 -8 -20 -5 0 -9 9 -9 20 0 11 4 20 8 20 4 0 8 -9 9
-20z m1263 10 c0 -5 -2 -10 -4 -10 -3 0 -8 5 -11 10 -3 6 -1 10 4 10 6 0 11
-4 11 -10z m-166 -33 c-5 -8 -3 -8 7 1 17 15 33 16 23 0 -5 -7 -2 -9 9 -5 9 3
17 2 19 -2 2 -4 18 -4 37 1 26 7 31 12 20 19 -8 5 -9 9 -3 9 38 0 -2 -52 -49
-64 -42 -10 -104 34 -81 57 11 10 25 -3 18 -16z m202 -34 c-6 -6 -36 9 -36 18
0 5 9 4 20 -3 10 -7 18 -14 16 -15z m444 7 c0 -5 -2 -10 -4 -10 -3 0 -8 5 -11
10 -3 6 -1 10 4 10 6 0 11 -4 11 -10z m-727 -35 c-3 -9 -8 -14 -10 -11 -3 3
-2 9 2 15 9 16 15 13 8 -4z m30 -10 c-3 -9 -8 -14 -10 -11 -3 3 -2 9 2 15 9
16 15 13 8 -4z m-860 -149 c-10 -13 -20 -22 -22 -20 -4 4 29 44 36 44 2 0 -4
-11 -14 -24z m1594 18 c-3 -3 -12 -4 -19 -1 -8 3 -5 6 6 6 11 1 17 -2 13 -5z
m-2122 -34 c110 -6 102 -7 -97 -8 -140 -1 -218 2 -218 8 0 11 125 11 315 0z
m63 -132 c-2 -58 -7 -102 -12 -100 -6 1 -9 22 -8 47 1 25 2 70 3 100 1 30 6
55 11 55 5 0 7 -46 6 -102z m-254 86 c-6 -3 -9 -15 -7 -28 3 -13 0 -26 -5 -30
-6 -4 -8 3 -4 16 5 21 4 22 -12 9 -9 -8 -20 -11 -23 -7 -4 4 -1 11 7 16 8 5
11 12 8 16 -10 9 -39 -22 -30 -32 4 -5 0 -3 -8 4 -13 11 -13 14 -1 21 11 7 10
10 -5 14 -10 2 6 5 36 5 30 0 50 -2 44 -4z m144 -1 c-16 -2 -40 -2 -55 0 -16
2 -3 4 27 4 30 0 43 -2 28 -4z m1624 -37 c-3 -28 0 -35 17 -41 11 -3 30 -1 42
5 17 10 20 18 15 43 -5 23 -3 28 5 20 6 -6 9 -26 7 -44 -3 -33 -5 -34 -50 -37
l-48 -3 0 45 c0 26 4 46 8 46 4 0 6 -15 4 -34z m-967 -36 l0 -55 -58 0 c-31 0
-57 -1 -57 -2 0 -1 4 -13 10 -27 l10 -26 -65 0 c-35 0 -66 3 -68 8 -3 4 -2 40
2 79 4 47 3 74 -4 77 -5 3 44 4 110 3 l120 -2 0 -55z m485 40 c0 -17 -102 -19
-108 -2 -2 8 13 12 52 12 31 0 56 -4 56 -10z m430 -35 c0 -33 -2 -35 -35 -35
-33 0 -35 2 -35 35 0 33 2 35 35 35 33 0 35 -2 35 -35z m-1750 -1 c0 -8 -4
-12 -10 -9 -5 3 -10 10 -10 16 0 5 5 9 10 9 6 0 10 -7 10 -16z m1400 -38 c0
-8 -4 -18 -10 -21 -5 -3 -10 3 -10 14 0 12 5 21 10 21 6 0 10 -6 10 -14z m272
-21 c3 -14 1 -25 -3 -25 -5 0 -9 11 -9 25 0 14 2 25 4 25 2 0 6 -11 8 -25z
m-331 -20 c1 -19 2 -43 3 -52 1 -16 -10 -18 -76 -21 l-78 -3 0 56 0 55 75 0
75 0 1 -35z m944 26 c3 -5 1 -12 -5 -16 -5 -3 -10 1 -10 9 0 18 6 21 15 7z
m-5 -51 c0 -5 -5 -10 -11 -10 -5 0 -7 5 -4 10 3 6 8 10 11 10 2 0 4 -4 4 -10z
m-1388 -72 c-7 -7 -12 -8 -12 -2 0 6 3 14 7 17 3 4 9 5 12 2 2 -3 -1 -11 -7
-17z m-206 -7 c-4 -5 -1 -12 4 -14 6 -3 5 -4 -2 -3 -15 3 -23 26 -8 26 6 0 9
-4 6 -9z m1147 -68 c-7 -2 -19 -2 -25 0 -7 3 -2 5 12 5 14 0 19 -2 13 -5z
m-1520 -30 c-13 -2 -35 -2 -50 0 -16 2 -5 4 22 4 28 0 40 -2 28 -4z m-33 -53
c0 -16 -4 -30 -10 -30 -5 0 -10 14 -10 30 0 17 5 30 10 30 6 0 10 -13 10 -30z
m45 21 c3 -5 1 -12 -5 -16 -5 -3 -10 1 -10 9 0 18 6 21 15 7z m405 -1 c-38
-12 -149 -12 -130 0 8 5 47 9 85 9 50 -1 63 -3 45 -9z m1040 0 c0 -5 -2 -10
-4 -10 -3 0 -8 5 -11 10 -3 6 -1 10 4 10 6 0 11 -4 11 -10z m30 0 c0 -5 -4
-10 -10 -10 -5 0 -10 5 -10 10 0 6 5 10 10 10 6 0 10 -4 10 -10z m30 0 c0 -5
-2 -10 -4 -10 -3 0 -8 5 -11 10 -3 6 -1 10 4 10 6 0 11 -4 11 -10z m-717 -27
c-7 -2 -19 -2 -25 0 -7 3 -2 5 12 5 14 0 19 -2 13 -5z m230 -10 c-35 -2 -91
-2 -125 0 -35 2 -7 3 62 3 69 0 97 -1 63 -3z m1142 -7 c19 -8 35 -18 35 -21 0
-3 -5 -3 -11 0 -6 4 -13 -3 -16 -15 -4 -14 -11 -19 -21 -15 -8 3 -22 0 -30 -7
-13 -10 -14 -10 -8 0 4 7 0 15 -10 19 -10 4 -19 2 -22 -5 -2 -7 -8 -10 -13 -7
-5 4 -6 -1 -3 -9 3 -9 1 -16 -5 -16 -6 0 -11 -10 -11 -22 0 -19 -2 -20 -10 -8
-7 11 -10 11 -10 2 0 -7 -4 -11 -9 -7 -17 10 -21 -12 -6 -25 12 -10 15 -10 15
0 0 8 3 11 6 7 13 -13 -23 -42 -55 -44 -18 -1 -36 -4 -38 -7 -12 -12 18 -33
41 -29 17 4 25 0 29 -16 2 -11 0 -22 -6 -24 -7 -2 -7 -6 -2 -9 17 -10 55 11
55 29 0 10 4 24 9 32 6 10 8 2 6 -23 -4 -46 -3 -45 -47 -48 -40 -3 -41 -18 -2
-18 27 0 35 -34 9 -44 -8 -3 -15 -1 -15 3 0 8 -42 -1 -80 -18 -24 -11 -50 -1
-50 20 0 10 7 19 15 19 8 0 15 3 15 8 0 4 3 17 6 30 5 16 2 22 -10 22 -9 0
-16 8 -16 20 0 11 7 20 15 20 19 0 19 9 0 30 -20 22 -10 49 24 62 l26 11 -37
9 c-21 6 -38 14 -38 19 0 5 6 8 13 7 7 -2 13 9 15 26 2 18 0 26 -7 21 -6 -3
-11 -2 -11 4 0 30 204 42 265 17z m-2165 -56 c0 -33 -3 -40 -20 -40 -17 0 -20
7 -20 40 0 33 3 40 20 40 17 0 20 -7 20 -40z m2327 14 c-9 -9 -28 6 -21 18 4
6 10 6 17 -1 6 -6 8 -13 4 -17z m-1206 -16 c1 -13 1 -29 0 -35 -1 -7 7 -13 18
-13 11 0 23 -5 26 -10 9 -15 25 -2 25 21 0 14 -7 19 -30 19 -16 0 -30 5 -30
10 0 6 16 10 36 10 21 0 33 4 29 10 -3 6 1 10 9 10 9 0 16 -9 16 -20 0 -11 7
-20 15 -20 12 0 15 -18 15 -101 0 -77 -3 -99 -12 -93 -10 6 -10 4 0 -7 17 -18
15 -39 -3 -39 -11 0 -15 -12 -15 -45 l0 -45 -175 0 -175 0 0 40 c0 22 -4 40
-10 40 -6 0 -10 39 -10 96 0 56 4 93 9 89 5 -3 12 -1 15 4 4 5 2 12 -4 16 -7
4 -7 12 0 25 5 10 10 28 10 39 0 20 5 21 120 21 117 0 120 0 121 -22z m332
-15 c-7 -2 -21 -2 -30 0 -10 3 -4 5 12 5 17 0 24 -2 18 -5z m-1559 -16 c25 3
36 1 32 -5 -4 -6 -56 -11 -127 -11 -125 -1 -161 15 -42 18 37 1 69 4 72 6 2 3
9 1 15 -4 6 -5 29 -7 50 -4z m866 -27 c0 -5 -5 -10 -11 -10 -5 0 -7 5 -4 10 3
6 8 10 11 10 2 0 4 -4 4 -10z m-73 -25 c0 -8 -4 -12 -9 -9 -5 3 -6 10 -3 15 9
13 12 11 12 -6z m1588 -3 c18 -10 18 -11 3 -12 -12 0 -18 -8 -18 -22 0 -13 -5
-30 -11 -38 -9 -13 -10 -13 -8 0 1 8 1 27 0 41 -1 22 -5 26 -26 21 -14 -2 -25
-9 -25 -14 0 -5 -4 -6 -10 -3 -5 3 -10 14 -10 23 0 13 9 17 43 16 23 0 51 -6
62 -12z m-797 1 c-15 -2 -42 -2 -60 0 -18 2 -6 4 27 4 33 0 48 -2 33 -4z
m-690 -79 c2 -24 -2 -33 -22 -41 -31 -15 -36 -9 -36 39 0 37 2 39 28 36 22 -2
28 -9 30 -34z m689 -70 c-3 -3 -12 -4 -19 -1 -8 3 -5 6 6 6 11 1 17 -2 13 -5z
m-1687 -24 c0 -5 -11 -10 -25 -10 -14 0 -25 5 -25 10 0 6 11 10 25 10 14 0 25
-4 25 -10z m195 0 c4 -6 -7 -10 -24 -10 -17 0 -31 5 -31 10 0 6 11 10 24 10
14 0 28 -4 31 -10z m2392 -56 c-3 -3 -12 -4 -19 -1 -8 3 -5 6 6 6 11 1 17 -2
13 -5z m-20 -50 c-3 -3 -12 -4 -19 -1 -8 3 -5 6 6 6 11 1 17 -2 13 -5z m-857
-35 c9 -5 -10 -9 -52 -9 -68 0 -102 15 -51 23 33 5 82 -2 103 -14z m-1082 -16
c-21 -2 -57 -2 -80 0 -24 2 -7 4 37 4 44 0 63 -2 43 -4z m1637 -25 c2 -7 6
-57 8 -110 3 -97 3 -98 -20 -98 -20 0 -23 -5 -23 -40 0 -35 3 -40 23 -40 22 0
22 -1 19 -135 l-3 -135 -38 0 -38 0 2 215 c1 119 5 219 9 222 3 3 6 14 6 22 0
9 9 22 20 29 11 7 20 21 20 32 0 29 -30 38 -46 15 -13 -18 -14 -17 -14 8 0 24
4 27 35 27 20 0 38 -6 40 -12z m-115 -32 c0 -19 5 -36 12 -38 14 -5 2 -28 -16
-28 -12 0 -36 54 -36 83 0 10 8 17 20 17 16 0 20 -7 20 -34z m47 -63 c-3 -10
-5 -2 -5 17 0 19 2 27 5 18 2 -10 2 -26 0 -35z m-69 -35 c3 -14 -3 -18 -27
-18 -29 0 -41 17 -24 34 13 13 48 1 51 -16z m-77 -1 c-1 -4 -1 -14 -1 -22 0
-8 -4 -15 -10 -15 -5 0 -10 12 -10 26 0 14 5 24 11 22 6 -2 10 -7 10 -11z
m-1138 -57 c3 -13 0 -20 -9 -20 -8 0 -14 9 -14 20 0 11 4 20 9 20 5 0 11 -9
14 -20z m1156 -50 l1 -60 -30 0 c-31 0 -41 14 -16 23 7 3 16 19 18 36 3 23 0
32 -14 37 -28 9 -21 24 11 24 28 0 28 -1 30 -60z m-979 20 c0 -5 -4 -10 -10
-10 -5 0 -10 5 -10 10 0 6 5 10 10 10 6 0 10 -4 10 -10z m1098 -29 l3 -31 -55
0 c-55 0 -56 1 -56 28 0 38 3 40 58 37 44 -3 47 -5 50 -34z m-1165 22 c-7 -2
-19 -2 -25 0 -7 3 -2 5 12 5 14 0 19 -2 13 -5z m207 -3 c-20 -13 -33 -13 -25
0 3 6 14 10 23 10 15 0 15 -2 2 -10z m80 0 c18 -12 2 -12 -25 0 -13 6 -15 9
-5 9 8 0 22 -4 30 -9z m-136 -136 c3 -8 2 -12 -4 -9 -6 3 -10 10 -10 16 0 14
7 11 14 -7z m-39 -104 c-3 -5 -10 -10 -16 -10 -5 0 -9 5 -9 10 0 6 7 10 16 10
8 0 12 -4 9 -10z m278 3 c-7 -2 -19 -2 -25 0 -7 3 -2 5 12 5 14 0 19 -2 13 -5z
m300 -20 c-7 -2 -19 -2 -25 0 -7 3 -2 5 12 5 14 0 19 -2 13 -5z m-23 -32 l45
-8 -55 -2 c-30 0 -62 4 -70 9 -19 12 14 12 80 1z m907 -47 c-3 -3 -12 -4 -19
-1 -8 3 -5 6 6 6 11 1 17 -2 13 -5z m-2032 -74 c-3 -5 -17 -10 -31 -10 -14 0
-22 4 -19 10 3 6 17 10 31 10 14 0 22 -4 19 -10z m885 -9 c0 -5 -10 -11 -22
-14 -22 -6 -22 -6 -4 8 23 17 26 18 26 6z m-475 -30 c2 -21 1 -22 -11 -7 -7
10 -15 13 -18 7 -4 -5 -2 -12 4 -16 13 -8 13 -35 1 -35 -5 0 -13 9 -16 20 -4
11 -11 18 -16 15 -14 -9 -11 19 3 33 20 20 51 10 53 -17z m1617 -63 c0 -51 2
-105 3 -120 1 -16 -3 -28 -9 -28 -7 0 -11 39 -11 120 0 66 3 120 8 120 4 0 8
-42 9 -92z m-61 73 c18 -7 20 -10 6 -10 -12 -1 -16 -6 -11 -13 6 -10 4 -10 -7
0 -20 18 -89 15 -104 -5 -11 -14 -13 -14 -17 8 -4 24 -2 25 52 27 32 1 68 -2
81 -7z m-1731 -275 c0 -239 -2 -264 -17 -270 -9 -4 -72 -6 -140 -5 l-123 1 0
269 0 269 140 0 140 0 0 -264z m1360 245 c-25 -14 -87 -25 -75 -13 9 10 40 18
75 20 13 1 13 0 0 -7z m-90 -21 c0 -5 -4 -10 -10 -10 -5 0 -10 5 -10 10 0 6 5
10 10 10 6 0 10 -4 10 -10z m90 -3 c0 -2 -11 -14 -25 -27 -27 -25 -35 -12 -9
14 14 14 34 22 34 13z m-825 -67 c-14 -27 -21 -50 -15 -50 5 0 10 -4 10 -10 0
-5 -7 -6 -17 -3 -11 4 -14 3 -9 -5 10 -16 26 -15 47 4 23 21 85 11 99 -16 13
-24 13 -106 0 -130 -6 -12 -26 -21 -55 -26 -30 -4 -51 -14 -60 -27 -8 -12 -15
-16 -15 -10 0 7 5 15 10 18 17 11 11 25 -11 25 -11 0 -18 -4 -14 -9 3 -6 -41
-11 -107 -13 -62 -2 -114 0 -116 5 -7 15 -24 6 -18 -9 6 -15 4 -15 -10 -3 -9
7 -26 14 -37 14 -12 1 -34 2 -49 3 l-28 2 0 80 c0 75 1 80 23 84 66 14 78 13
88 -5 5 -10 15 -16 22 -13 15 5 16 32 2 54 -34 53 -34 63 1 27 l36 -38 89 3
c49 1 89 5 89 8 0 8 60 90 66 90 2 0 -7 -22 -21 -50z m415 -113 c3 -86 4 -162
2 -167 -2 -6 -49 -10 -108 -10 l-104 0 0 165 0 164 88 4 c48 2 94 3 102 2 12
0 16 -27 20 -158z m425 124 c-6 -5 -25 10 -25 20 0 5 6 4 14 -3 8 -7 12 -15
11 -17z m222 7 c-3 -8 -6 -5 -6 6 -1 11 2 17 5 13 3 -3 4 -12 1 -19z m-178
-12 c8 -10 9 -16 1 -21 -13 -8 -30 3 -30 21 0 18 14 18 29 0z m178 -28 c-3 -8
-6 -5 -6 6 -1 11 2 17 5 13 3 -3 4 -12 1 -19z m1 -42 c-1 -14 -5 -23 -9 -20
-7 4 0 44 7 44 2 0 3 -11 2 -24z m240 -99 c15 -41 15 -50 2 -42 -5 3 -10 2
-10 -4 0 -16 -39 -33 -59 -26 -25 8 -33 30 -25 71 6 31 9 34 43 34 33 0 38 -4
49 -33z m-368 -18 c0 -11 -4 -18 -10 -14 -5 3 -7 12 -3 20 7 21 13 19 13 -6z
m-1331 -181 c-10 -18 -9 -20 5 -15 8 3 18 2 21 -2 2 -5 -4 -11 -15 -14 -20 -5
-37 23 -25 43 13 20 26 10 14 -12z m531 -59 c0 -5 -4 -9 -10 -9 -5 0 -10 7
-10 16 0 8 5 12 10 9 6 -3 10 -10 10 -16z m765 1 c0 -22 -29 -18 -33 3 -3 14
1 18 15 15 10 -2 18 -10 18 -18z m239 -12 c-3 -4 -20 -8 -37 -9 -27 0 -29 -2
-12 -9 19 -8 19 -9 -2 -9 -32 -1 -28 14 9 37 23 15 35 18 40 9 3 -6 4 -15 2
-19z"/>
<path d="M2155 3020 c-3 -5 -15 -10 -26 -10 -10 0 -19 -4 -19 -10 0 -5 4 -10
9 -10 10 0 59 39 49 40 -4 0 -10 -4 -13 -10z"/>
<path d="M1990 2970 c0 -4 11 -15 25 -24 20 -13 29 -14 43 -6 15 10 14 11 -5
7 -13 -3 -23 -1 -23 4 0 5 5 9 12 9 6 0 8 3 5 6 -10 10 -57 13 -57 4z"/>
<path d="M2040 2904 c0 -17 68 -46 76 -32 4 7 3 8 -4 4 -7 -4 -12 -3 -12 3 0
5 9 13 21 16 11 4 18 10 14 13 -11 11 -95 8 -95 -4z"/>
<path d="M570 2890 c0 -5 5 -10 10 -10 6 0 10 5 10 10 0 6 -4 10 -10 10 -5 0
-10 -4 -10 -10z"/>
<path d="M565 2850 c4 -6 11 -8 16 -5 14 9 11 15 -7 15 -8 0 -12 -5 -9 -10z"/>
<path d="M405 2830 c-2 -3 5 -7 16 -7 10 -1 19 2 19 6 0 9 -29 10 -35 1z"/>
<path d="M2999 2878 c-5 -18 -6 -38 -1 -34 7 8 12 36 6 36 -2 0 -4 -1 -5 -2z"/>
<path d="M3063 2864 c-3 -8 -1 -20 4 -25 5 -5 9 1 9 16 0 29 -4 32 -13 9z"/>
<path d="M3140 2799 c0 -5 5 -7 10 -4 6 3 10 8 10 11 0 2 -4 4 -10 4 -5 0 -10
-5 -10 -11z"/>
<path d="M3000 2760 c0 -8 13 -10 40 -5 26 4 40 3 40 -4 0 -6 -18 -11 -40 -11
-39 0 -40 -1 -40 -35 0 -32 3 -35 28 -35 20 0 23 3 12 9 -8 6 -18 7 -22 5 -4
-3 -8 4 -8 15 0 17 6 21 35 21 19 0 35 -5 35 -11 0 -20 29 -39 60 -39 31 0 31
0 28 48 l-3 47 -82 3 c-57 2 -83 -1 -83 -8z"/>
<path d="M3000 2615 c0 -25 1 -25 85 -25 l85 0 -1 28 c-2 23 -2 24 -6 5 -4
-21 -10 -23 -66 -22 -54 0 -58 2 -34 11 41 15 33 28 -18 28 -41 0 -45 -2 -45
-25z"/>
<path d="M2778 2703 c7 -3 16 -2 19 1 4 3 -2 6 -13 5 -11 0 -14 -3 -6 -6z"/>
<path d="M1141 2443 c1 -53 6 -49 11 10 2 20 0 37 -4 37 -4 0 -8 -21 -7 -47z"/>
<path d="M1188 2453 c-20 -5 -22 -12 -8 -33 7 -12 13 -12 27 -4 34 21 20 47
-19 37z"/>
<path d="M2704 2062 c10 -12 22 -19 26 -17 5 3 11 -1 14 -7 5 -11 7 -11 12 0
3 6 10 10 15 7 5 -4 6 1 3 9 -3 9 -14 16 -23 16 -9 0 -27 3 -41 7 -25 6 -25 6
-6 -15z"/>
<path d="M2706 1842 c-3 -5 1 -9 9 -9 8 0 12 4 9 9 -3 4 -7 8 -9 8 -2 0 -6 -4
-9 -8z"/>
<path d="M1630 2030 c0 -5 4 -10 9 -10 6 0 13 5 16 10 3 6 -1 10 -9 10 -9 0
-16 -4 -16 -10z"/>
<path d="M1670 2030 c0 -5 5 -10 10 -10 6 0 10 5 10 10 0 6 -4 10 -10 10 -5 0
-10 -4 -10 -10z"/>
<path d="M1710 2030 c0 -5 5 -10 10 -10 6 0 10 5 10 10 0 6 -4 10 -10 10 -5 0
-10 -4 -10 -10z"/>
<path d="M1740 2030 c0 -5 7 -10 15 -10 8 0 15 5 15 10 0 6 -7 10 -15 10 -8 0
-15 -4 -15 -10z"/>
<path d="M1780 2030 c0 -5 5 -10 10 -10 6 0 10 5 10 10 0 6 -4 10 -10 10 -5 0
-10 -4 -10 -10z"/>
<path d="M1820 2030 c0 -5 5 -10 10 -10 6 0 10 5 10 10 0 6 -4 10 -10 10 -5 0
-10 -4 -10 -10z"/>
<path d="M1658 1976 c-36 -44 -48 -77 -48 -136 0 -61 7 -80 31 -80 10 0 23 -9
29 -20 6 -11 18 -20 26 -20 11 0 14 -6 10 -16 -4 -10 -2 -14 6 -11 7 2 12 9
11 14 -1 5 4 10 12 10 7 0 11 -6 8 -14 -3 -7 0 -13 6 -13 6 0 11 7 11 15 0 11
11 15 40 15 28 0 40 4 40 14 0 8 9 18 21 21 11 4 27 21 34 38 7 18 17 31 21
29 5 -2 10 2 13 9 2 8 -2 10 -13 6 -13 -5 -16 0 -16 23 0 20 5 30 15 30 8 0
15 5 15 11 0 6 -7 9 -15 5 -9 -3 -15 0 -15 9 0 8 3 14 8 13 4 -2 7 2 7 7 0 6
-5 9 -11 7 -6 -1 -14 4 -18 13 -3 8 -12 15 -20 15 -9 0 -20 9 -26 20 -9 17
-21 20 -83 19 -69 0 -73 -2 -99 -33z m133 -8 c81 -28 104 -130 43 -191 -93
-94 -241 33 -179 153 9 18 26 32 43 36 15 3 32 7 37 9 17 6 21 5 56 -7z"/>
<path d="M1728 1943 c7 -3 16 -2 19 1 4 3 -2 6 -13 5 -11 0 -14 -3 -6 -6z"/>
<path d="M1777 1943 c30 -6 63 -49 63 -82 0 -32 -25 -69 -54 -81 -15 -6 -17
-9 -4 -9 24 -1 68 56 68 89 0 37 -45 90 -73 89 -22 -2 -22 -2 0 -6z"/>
<path d="M1681 1914 c-12 -15 -21 -39 -21 -55 0 -32 44 -89 68 -88 13 0 11 3
-4 9 -53 21 -69 88 -33 134 11 14 18 26 15 26 -2 0 -14 -12 -25 -26z"/>
<path d="M1910 1859 c0 -5 5 -7 10 -4 6 3 10 8 10 11 0 2 -4 4 -10 4 -5 0 -10
-5 -10 -11z"/>
<path d="M1905 1790 c-3 -5 1 -10 9 -10 9 0 16 5 16 10 0 6 -4 10 -9 10 -6 0
-13 -4 -16 -10z"/>
<path d="M1883 1750 c-34 -14 -28 -30 12 -30 28 0 35 4 35 20 0 22 -12 24 -47
10z"/>
<path d="M1630 1700 c0 -5 5 -10 10 -10 6 0 10 5 10 10 0 6 -4 10 -10 10 -5 0
-10 -4 -10 -10z"/>
<path d="M1670 1700 c0 -5 5 -10 10 -10 6 0 10 5 10 10 0 6 -4 10 -10 10 -5 0
-10 -4 -10 -10z"/>
<path d="M1780 1700 c0 -5 5 -10 10 -10 6 0 10 5 10 10 0 6 -4 10 -10 10 -5 0
-10 -4 -10 -10z"/>
<path d="M1815 1700 c-3 -5 -2 -10 4 -10 5 0 13 5 16 10 3 6 2 10 -4 10 -5 0
-13 -4 -16 -10z"/>
<path d="M1850 1700 c0 -5 5 -10 10 -10 6 0 10 5 10 10 0 6 -4 10 -10 10 -5 0
-10 -4 -10 -10z"/>
<path d="M1890 1700 c0 -5 5 -10 10 -10 6 0 10 5 10 10 0 6 -4 10 -10 10 -5 0
-10 -4 -10 -10z"/>
<path d="M2755 1450 c-3 -5 -2 -10 4 -10 5 0 13 5 16 10 3 6 2 10 -4 10 -5 0
-13 -4 -16 -10z"/>
<path d="M2750 1410 c0 -5 4 -10 9 -10 6 0 13 5 16 10 3 6 -1 10 -9 10 -9 0
-16 -4 -16 -10z"/>
<path d="M2755 1250 c-3 -5 -2 -10 4 -10 5 0 13 5 16 10 3 6 2 10 -4 10 -5 0
-13 -4 -16 -10z"/>
<path d="M2750 1210 c0 -5 7 -7 15 -4 8 4 15 8 15 10 0 2 -7 4 -15 4 -8 0 -15
-4 -15 -10z"/>
<path d="M2755 1180 c-3 -5 1 -10 9 -10 9 0 16 5 16 10 0 6 -4 10 -9 10 -6 0
-13 -4 -16 -10z"/>
<path d="M2750 1140 c0 -5 7 -7 15 -4 8 4 15 8 15 10 0 2 -7 4 -15 4 -8 0 -15
-4 -15 -10z"/>
<path d="M2755 1110 c-3 -5 1 -10 9 -10 9 0 16 5 16 10 0 6 -4 10 -9 10 -6 0
-13 -4 -16 -10z"/>
<path d="M2757 1083 c-4 -3 -7 -12 -7 -20 0 -11 4 -11 19 -1 11 7 17 16 15 20
-6 10 -18 10 -27 1z"/>
<path d="M1941 644 c0 -11 3 -14 6 -6 3 7 2 16 -1 19 -3 4 -6 -2 -5 -13z"/>
<path d="M0 2901 c0 -5 33 -11 74 -13 56 -2 72 0 69 10 -6 14 -143 17 -143 3z"/>
<path d="M42 2468 c-2 -123 -3 -127 -24 -131 -13 -2 9 -5 48 -6 76 -1 105 14
103 55 0 14 -3 13 -10 -7 -6 -15 -20 -30 -32 -33 -36 -10 -67 -7 -68 7 -1 6
-5 64 -9 127 l-7 115 -1 -127z"/>
</g>
</svg>
